<?xml version="1.0" encoding="utf-8"?>
<!-- Svg Vector Icons : http://www.onlinewebfonts.com/icon -->
<!DOCTYPE svg PUBLIC "-//W3C//DTD SVG 1.1//EN" "http://www.w3.org/Graphics/SVG/1.1/DTD/svg11.dtd">
<svg version="1.1" xmlns="http://www.w3.org/2000/svg" xmlns:xlink="http://www.w3.org/1999/xlink" x="0px" y="0px" viewBox="0 0 1000 1000" enable-background="new 0 0 1000 1000" xml:space="preserve">
<metadata> Svg Vector Icons : http://www.onlinewebfonts.com/icon </metadata>
<g><g transform="translate(0.000000,129.000000) scale(0.100000,-0.100000)"><path fill="#894b00" d="M7628.5-2529.8c-66.1-29.1-114.6-97.1-114.6-167.1c0-38.9,15.6-83.5,38.8-108.8c19.4-23.3,347.7-198.1,726.6-388.5L8969-3540H5691.7l-3277.3-1.9l-215.6,359.4c-118.5,198.2-233.1,367.2-252.5,378.8c-48.6,27.2-157.3,23.3-196.2-5.8c-40.8-31.1-75.8-99.1-75.8-143.8c0-21.4,69.9-155.4,155.4-299.2c85.5-143.8,155.4-266.1,155.4-273.9c0-9.7-81.6-15.5-180.7-15.5h-180.7l-202,334.1c-110.7,184.6-217.6,355.5-238.9,378.8c-58.3,64.1-184.6,62.2-246.7-3.9c-79.6-85.5-64.1-149.6,104.9-429.3c85.5-137.9,157.3-256.4,161.2-264.2c3.9-9.7-77.7-15.5-182.6-15.5l-190.4,1.9l-194.3,322.5c-248.7,415.7-264.2,433.2-361.3,433.2c-56.3,0-91.3-13.6-124.3-48.6c-89.4-87.4-69.9-143.8,165.1-532.3l211.8-351.6l-211.8-351.6C79.3-4457,59.9-4513.3,149.3-4600.7c33-35,68-48.6,124.3-48.6c97.1,0,112.7,17.5,361.3,433.2l194.3,324.4h192.3h190.4l-27.2-44.7C1004-4218,889.4-4433.6,889.4-4488.1c0-130.1,163.2-209.8,272-134c21.4,15.5,134,186.5,250.6,378.8l211.8,351.6h180.7c99.1,0,180.7-5.8,180.7-13.6c0-9.7-69.9-132.1-155.4-275.8c-85.5-143.8-155.4-277.8-155.4-299.2c0-44.7,35-112.7,75.8-143.8c38.9-29.1,147.6-33,196.2-5.8c19.4,11.7,134.1,180.7,252.5,378.8l215.6,359.4l3277.3-1.9H8969l-689.6-345.8c-378.8-190.4-707.1-365.2-726.6-388.5c-93.2-103-11.7-277.8,128.2-277.8c48.6,0,353.6,143.8,1115.1,524.5c577,287.5,1060.7,540.1,1076.2,557.5c36.9,44.7,36.9,171,0,213.7c-31.1,36.9-2142.8,1097.6-2181.6,1095.7C7677.1-2514.3,7649.9-2522.1,7628.5-2529.8z"/></g></g>
</svg>
